<svg width="24" height="24" viewBox="0 0 24 24" fill="none" xmlns="http://www.w3.org/2000/svg">
<path d="M12 0C18.6274 0 24 5.37258 24 12C24 18.6274 18.6274 24 12 24C5.37258 24 0 18.6274 0 12C0 5.37258 5.37258 0 12 0ZM19.207 7.79297C18.8165 7.40244 18.1835 7.40244 17.793 7.79297L10.0195 15.5654L6.72656 12.0781L6.65332 12.0068C6.26986 11.6755 5.68988 11.6826 5.31348 12.0381C4.93734 12.3935 4.8975 12.9714 5.20605 13.373L5.27344 13.4512L9.27344 17.6865L9.97949 18.4346L19.207 9.20703C19.5976 8.81651 19.5976 8.18349 19.207 7.79297Z" fill="#10B27F"/>
</svg>
