<svg width="26" height="26" viewBox="0 0 26 26" fill="none" xmlns="http://www.w3.org/2000/svg">
<path d="M13 0C20.1797 0 26 5.8203 26 13C26 20.1797 20.1797 26 13 26C5.8203 26 0 20.1797 0 13C0 5.8203 5.8203 0 13 0ZM8.63086 7.22461C8.23809 6.90426 7.65908 6.92685 7.29297 7.29297C6.92685 7.65908 6.90426 8.23809 7.22461 8.63086L7.29297 8.70703L11.585 12.999L7.34277 17.2422C6.95225 17.6327 6.95225 18.2667 7.34277 18.6572C7.70892 19.0234 8.28887 19.046 8.68164 18.7256L8.75781 18.6572L13 14.4141L17.1924 18.6064L17.2686 18.6748C17.6613 18.9952 18.2403 18.9726 18.6064 18.6064C18.9726 18.2403 18.9952 17.6613 18.6748 17.2686L18.6064 17.1924L14.4141 13L18.6572 8.75781C19.0477 8.36729 19.0477 7.7333 18.6572 7.34277C18.2911 6.97662 17.7111 6.95397 17.3184 7.27441L17.2422 7.34277L12.999 11.585L8.70703 7.29297L8.63086 7.22461Z" fill="#CF3021"/>
</svg>
